<svg width="85" height="85" viewBox="0 0 85 85" fill="none" xmlns="http://www.w3.org/2000/svg">
<path d="M3.17 23.29L21.95 22.57L21.83 3.78L29.85 11.45L29.97 30.24L11.19 30.95L3.17 23.29ZM15.34 34.92L34.12 34.21L34 15.42L42.02 23.09L42.14 41.88L23.36 42.59L15.34 34.92ZM63.17 80.66L63.04 61.87L81.83 61.15L73.81 53.49L55.03 54.2L55.15 72.99L63.17 80.66ZM51 69.02L50.87 50.23L69.66 49.52L61.64 41.85L42.86 42.56L42.98 61.36L51 69.02ZM61.43 2.89L62.15 21.67L80.94 21.55L73.27 29.57L54.48 29.69L53.77 10.91L61.43 2.89ZM49.8 15.06L50.51 33.85L69.3 33.72L61.63 41.74L42.84 41.86L42.13 23.08L49.8 15.06ZM4.06 62.89L22.85 62.77L23.57 81.55L31.23 73.53L30.52 54.75L11.73 54.87L4.06 62.89ZM15.7 50.72L34.49 50.6L35.2 69.38L42.87 61.36L42.16 42.58L23.37 42.7L15.7 50.72Z" fill="#F5C506" fill-opacity="0.5"/>
<path d="M0.990005 56L14.07 42.5L0.990005 29H12.09L25.17 42.5L12.09 56H0.990005ZM17.83 56L30.91 42.5L17.83 29H28.93L42.01 42.5L28.93 56H17.83ZM84.01 56L70.93 42.5L84.01 29H72.91L59.83 42.5L72.91 56H84.01ZM67.17 56L54.09 42.5L67.17 29H56.07L42.99 42.5L56.07 56H67.17ZM29 0.990005L42.5 14.07L56 0.990005V12.09L42.5 25.17L29 12.09V0.990005ZM29 17.83L42.5 30.91L56 17.83V28.93L42.5 42.01L29 28.93V17.83ZM29 84.01L42.5 70.93L56 84.01V72.91L42.5 59.83L29 72.91V84.01ZM29 67.17L42.5 54.09L56 67.17V56.07L42.5 42.99L29 56.07V67.17Z" fill="#F5C505"/>
</svg>
