<?xml version="1.0" encoding="UTF-8"?>
<svg width="163px" height="133px" viewBox="0 0 163 133" version="1.1" xmlns="http://www.w3.org/2000/svg" xmlns:xlink="http://www.w3.org/1999/xlink">
    <!-- Generator: Sketch 58 (84663) - https://sketch.com -->
    <title>twitter</title>
    <desc>Created with Sketch.</desc>
    <g id="Page-1" stroke="none" stroke-width="1" fill="none" fill-rule="evenodd" fill-opacity="0.9">
        <g id="Artboard" transform="translate(-912.000000, -947.000000)" fill="#BC7D00">
            <g id="section_1" transform="translate(139.000000, 820.000000)">
                <g id="scroll_2" transform="translate(690.000000, 68.000000)">
                    <path d="M245.998795,74.312556 L230.717551,89.625528 C230.717551,89.625528 230.717551,88.237935 230.717551,92.178273 C230.717551,94.976673 230.267992,97.650258 229.616995,100.246569 C229.261144,121.312638 222.564613,149.247825 195.061315,171.297309 C140.960335,214.668375 82.99903,176.401686 82.99903,176.401686 C128.842591,176.401686 128.842591,161.088078 128.842591,161.088078 C118.655095,161.088078 98.280274,140.670888 98.280274,140.670888 C103.373851,145.774788 113.561518,140.670888 113.561518,140.670888 C88.092436,125.356962 88.092436,110.043831 88.092436,110.043831 C93.186355,115.148049 103.373851,110.043831 103.373851,110.043831 C77.905111,89.625528 93.186355,64.103166 93.186355,64.103166 C98.280274,89.625528 164.498998,99.8346 164.498998,99.8346 L165.341344,99.412455 C164.821675,97.077858 164.498998,92.117694 164.498998,89.625528 C164.498998,71.301891 179.322133,58.998948 197.608018,58.998948 C207.672736,58.998948 216.578587,63.59532 222.650455,70.69785 L225.623803,69.208179 L240.905047,58.998948 L230.717551,79.416933 L245.998795,74.312556 Z" id="twitter"></path>
                </g>
            </g>
        </g>
    </g>
</svg>